<?xml version="1.0" encoding="UTF-8" standalone="no"?>
<svg
   xmlns:dc="http://purl.org/dc/elements/1.1/"
   xmlns:cc="http://creativecommons.org/ns#"
   xmlns:rdf="http://www.w3.org/1999/02/22-rdf-syntax-ns#"
   xmlns:svg="http://www.w3.org/2000/svg"
   xmlns="http://www.w3.org/2000/svg"
   xmlns:sodipodi="http://sodipodi.sourceforge.net/DTD/sodipodi-0.dtd"
   xmlns:inkscape="http://www.inkscape.org/namespaces/inkscape"
   class="u7 uzlpSb"
   viewBox="-7 -4 36 22"
   height="22px"
   width="36px"
   preserveAspectRatio="xMidYMid meet"
   version="1.1"
   id="svg2"
   inkscape:version="0.48.4 r9939"
   sodipodi:docname="g+.svg">
  <metadata
     id="metadata14">
    <rdf:RDF>
      <cc:Work
         rdf:about="">
        <dc:format>image/svg+xml</dc:format>
        <dc:type
           rdf:resource="http://purl.org/dc/dcmitype/StillImage" />
        <dc:title></dc:title>
      </cc:Work>
    </rdf:RDF>
  </metadata>
  <defs
     id="defs12" />
  <sodipodi:namedview
     pagecolor="#ffffff"
     bordercolor="#666666"
     borderopacity="1"
     objecttolerance="10"
     gridtolerance="10"
     guidetolerance="10"
     inkscape:pageopacity="0"
     inkscape:pageshadow="2"
     inkscape:window-width="1360"
     inkscape:window-height="744"
     id="namedview10"
     showgrid="false"
     inkscape:zoom="19.28125"
     inkscape:cx="18"
     inkscape:cy="11"
     inkscape:window-x="0"
     inkscape:window-y="24"
     inkscape:window-maximized="1"
     inkscape:current-layer="svg2" />
  <path
     d="m6.165,5.363c.438-.427 .478-1.019 .478-1.351 0-1.33-.821-3.397-2.407-3.397-.496,0-1.031,.239-1.337,.61-.325,.388-.42,.883-.42,1.358 0,1.236 .745,3.287 2.388,3.287 .476,.009 .991-.212 1.298-.507m-1.248,3.491c0,0-1.062,.092-1.865,.354-.419,.146-1.529,.535-1.529,1.854 0,1.312 1.318,2.252 3.362,2.252 1.833,0 2.809-.852 2.809-1.994 0-.938-.92-1.893-2.083-2.438-.219-.003-.694-.028-.694-.028zm2.426-7.942c.321,.381 .98,.987 .98,2.252 0,1.367-.804,2.014-1.604,2.623-.248,.239-.535,.498-.535,.905 0,.406 .287,.63 .496,.793l.688,.519c.841,.687 1.592,1.312 1.592,2.588 0,1.736-1.728,3.408-5.011,3.408-2.771,0-3.949-1.189-3.949-2.561 0-.666 .185-1.744 1.312-2.396 1.185-.695 2.536-.771 3.394-.814-.268-.333-.318-.575-.318-1.147 0-.313 .098-.5 .193-.723-.211,.02-.422,.037-.613,.037-2.024,0-3.171-1.459-3.171-2.898 0-.852 .403-1.793 1.223-2.477 1.089-.867 2.388-1.021 3.418-1.021h3.521l-.682,.904h-.937l.003,.008z"
     id="path4" />
  <path
     sodipodi:type="arc"
     style="fill:#422130;fill-opacity:1;stroke:#422130;stroke-width:4;stroke-miterlimit:4;stroke-opacity:1;stroke-dasharray:none"
     id="path2991"
     sodipodi:cx="13.354943"
     sodipodi:cy="10.019449"
     sodipodi:rx="9.0502434"
     sodipodi:ry="9.0243111"
     d="m 22.405187,10.019449 a 9.0502434,9.0243111 0 1 1 -18.1004871,0 9.0502434,9.0243111 0 1 1 18.1004871,0 z"
     transform="translate(-5.2106974,-3.0664504)" />
  <path
     d="m6.165,5.363c.438-.427 .478-1.019 .478-1.351 0-1.33-.821-3.397-2.407-3.397-.496,0-1.031,.239-1.337,.61-.325,.388-.42,.883-.42,1.358 0,1.236 .745,3.287 2.388,3.287 .476,.009 .991-.212 1.298-.507m-1.248,3.491c0,0-1.062,.092-1.865,.354-.419,.146-1.529,.535-1.529,1.854 0,1.312 1.318,2.252 3.362,2.252 1.833,0 2.809-.852 2.809-1.994 0-.938-.92-1.893-2.083-2.438-.219-.003-.694-.028-.694-.028zm2.426-7.942c.321,.381 .98,.987 .98,2.252 0,1.367-.804,2.014-1.604,2.623-.248,.239-.535,.498-.535,.905 0,.406 .287,.63 .496,.793l.688,.519c.841,.687 1.592,1.312 1.592,2.588 0,1.736-1.677,3.408-4.96,3.408-2.771,0-4-1.189-4-2.561 0-.666 .185-1.744 1.312-2.396 1.185-.695 2.536-.771 3.394-.814-.268-.333-.318-.575-.318-1.147 0-.313 .098-.5 .193-.723-.211,.02-.422,.037-.613,.037-2.024,0-3.171-1.459-3.171-2.898 0-.852 .403-1.793 1.223-2.477 1.089-.867 2.388-1.021 3.418-1.021h3.521l-.682,.904h-.937l.003,.008z"
     id="path6"
     style="fill:#ffffff" />
  <path
     d="m 15,4 -2,0 0,2 -2,0 0,2 2,0 0,2 2,0 0,-2 2,0 0,-2 -2,0 z"
     id="path8"
     inkscape:connector-curvature="0"
     sodipodi:nodetypes="ccccccccccccc"
     style="fill:#ffffff" />
</svg>
